HIERARCHY
ROOT Motion_Root
{
	OFFSET 0.000000 0.000000 1.000000
	CHANNELS 6 Xposition Yposition Zposition Zrotation Yrotation Xrotation
	JOINT Balance_Root
	{
		OFFSET 0.000000 0.000000 0.000000
		CHANNELS 6 Xposition Yposition Zposition Zrotation Yrotation Xrotation
		JOINT Character_Root
		{
			OFFSET 0.000000 -0.019576 0.066940
			CHANNELS 6 Xposition Yposition Zposition Zrotation Yrotation Xrotation
			JOINT Pelvis
			{
				OFFSET 0.000000 0.000000 -0.000049
				CHANNELS 6 Xposition Yposition Zposition Zrotation Yrotation Xrotation
				JOINT Hip_L
				{
					OFFSET 0.099629 -0.000507 -0.096262
					CHANNELS 6 Xposition Yposition Zposition Zrotation Yrotation Xrotation
					JOINT Knee_L
					{
						OFFSET 0.440729 0.000000 0.000000
						CHANNELS 6 Xposition Yposition Zposition Zrotation Yrotation Xrotation
						JOINT Ankle_L
						{
							OFFSET 0.418593 0.000000 0.000000
							CHANNELS 6 Xposition Yposition Zposition Zrotation Yrotation Xrotation
							JOINT Ball_L
							{
								OFFSET 0.147135 0.000000 0.000000
								CHANNELS 6 Xposition Yposition Zposition Zrotation Yrotation Xrotation
								End Site
								{
									OFFSET 0.000000 0.000000 0.050456
								}
							}
						}
					}
				}
				JOINT Hip_R
				{
					OFFSET -0.099629 -0.000507 -0.096263
					CHANNELS 6 Xposition Yposition Zposition Zrotation Yrotation Xrotation
					JOINT Knee_R
					{
						OFFSET -0.440729 0.000000 0.000000
						CHANNELS 6 Xposition Yposition Zposition Zrotation Yrotation Xrotation
						JOINT Ankle_R
						{
							OFFSET -0.418593 0.000001 0.000000
							CHANNELS 6 Xposition Yposition Zposition Zrotation Yrotation Xrotation
							JOINT Ball_R
							{
								OFFSET -0.147135 -0.000001 0.000000
								CHANNELS 6 Xposition Yposition Zposition Zrotation Yrotation Xrotation
								End Site
								{
									OFFSET 0.000000 0.000000 0.050456
								}
							}
						}
					}
				}
			}
			JOINT Spine_1
			{
				OFFSET 0.000000 -0.000032 0.010172
				CHANNELS 6 Xposition Yposition Zposition Zrotation Yrotation Xrotation
				JOINT Spine_2
				{
					OFFSET 0.150000 0.000000 0.000000
					CHANNELS 6 Xposition Yposition Zposition Zrotation Yrotation Xrotation
					JOINT Spine_3
					{
						OFFSET 0.149789 0.000000 0.000000
						CHANNELS 6 Xposition Yposition Zposition Zrotation Yrotation Xrotation
						JOINT Clavicle_L
						{
							OFFSET 0.178472 0.029517 0.004071
							CHANNELS 6 Xposition Yposition Zposition Zrotation Yrotation Xrotation
							JOINT Shoulder_L
							{
								OFFSET 0.184188 -0.013991 -0.037845
								CHANNELS 6 Xposition Yposition Zposition Zrotation Yrotation Xrotation
								JOINT Elbow_L
								{
									OFFSET 0.294246 0.000000 0.000000
									CHANNELS 6 Xposition Yposition Zposition Zrotation Yrotation Xrotation
									JOINT Forarm_L
									{
										OFFSET 0.154423 0.000000 0.000000
										CHANNELS 6 Xposition Yposition Zposition Zrotation Yrotation Xrotation
										JOINT Wrist_L
										{
											OFFSET 0.142091 0.000000 0.000000
											CHANNELS 6 Xposition Yposition Zposition Zrotation Yrotation Xrotation
											JOINT Middle_Base_L
											{
												OFFSET 0.095028 0.000000 0.000000
												CHANNELS 6 Xposition Yposition Zposition Zrotation Yrotation Xrotation
												JOINT Middle_L
												{
													OFFSET 0.047568 0.000000 0.000000
													CHANNELS 6 Xposition Yposition Zposition Zrotation Yrotation Xrotation
													End Site
													{
														OFFSET 0.000000 0.000000 0.050456
													}
												}
											}
											JOINT Thumb_Base_L
											{
												OFFSET 0.008685 0.015288 0.035442
												CHANNELS 6 Xposition Yposition Zposition Zrotation Yrotation Xrotation
												JOINT Thumb_L
												{
													OFFSET 0.048268 0.000000 0.000000
													CHANNELS 6 Xposition Yposition Zposition Zrotation Yrotation Xrotation
													End Site
													{
														OFFSET 0.000000 0.000000 0.050456
													}
												}
											}
										}
									}
								}
							}
						}
						JOINT Neck
						{
							OFFSET 0.239309 0.000000 0.000000
							CHANNELS 6 Xposition Yposition Zposition Zrotation Yrotation Xrotation
							JOINT Head
							{
								OFFSET 0.069269 0.000000 0.000000
								CHANNELS 6 Xposition Yposition Zposition Zrotation Yrotation Xrotation
								JOINT Jaw
								{
									OFFSET 0.031254 0.000000 0.000000
									CHANNELS 6 Xposition Yposition Zposition Zrotation Yrotation Xrotation
									End Site
									{
										OFFSET 0.000000 0.000000 0.050456
									}
								}
							}
						}
						JOINT Clavicle_R
						{
							OFFSET 0.178474 -0.029517 0.004071
							CHANNELS 6 Xposition Yposition Zposition Zrotation Yrotation Xrotation
							JOINT Shoulder_R
							{
								OFFSET -0.184187 0.013991 0.037850
								CHANNELS 6 Xposition Yposition Zposition Zrotation Yrotation Xrotation
								JOINT Elbow_R
								{
									OFFSET -0.294245 0.000001 0.000000
									CHANNELS 6 Xposition Yposition Zposition Zrotation Yrotation Xrotation
									JOINT Forarm_R
									{
										OFFSET -0.154426 -0.000003 0.000001
										CHANNELS 6 Xposition Yposition Zposition Zrotation Yrotation Xrotation
										JOINT Wrist_R
										{
											OFFSET -0.142086 0.000003 -0.000001
											CHANNELS 6 Xposition Yposition Zposition Zrotation Yrotation Xrotation
											JOINT Index_Base_R
											{
												OFFSET -0.095816 -0.001946 -0.031714
												CHANNELS 6 Xposition Yposition Zposition Zrotation Yrotation Xrotation
												JOINT Index_R
												{
													OFFSET -0.045455 0.000000 0.000000
													CHANNELS 6 Xposition Yposition Zposition Zrotation Yrotation Xrotation
													End Site
													{
														OFFSET 0.000000 0.000000 0.050456
													}
												}
											}
											JOINT Middle_Base_R
											{
												OFFSET -0.095029 0.000000 0.000000
												CHANNELS 6 Xposition Yposition Zposition Zrotation Yrotation Xrotation
												JOINT Middle_R
												{
													OFFSET -0.047568 0.000000 -0.000001
													CHANNELS 6 Xposition Yposition Zposition Zrotation Yrotation Xrotation
													End Site
													{
														OFFSET 0.000000 0.000000 0.050456
													}
												}
											}
											JOINT Thumb_Base_R
											{
												OFFSET -0.008688 -0.015288 -0.035441
												CHANNELS 6 Xposition Yposition Zposition Zrotation Yrotation Xrotation
												JOINT Thumb_R
												{
													OFFSET -0.048266 0.000000 0.000002
													CHANNELS 6 Xposition Yposition Zposition Zrotation Yrotation Xrotation
													End Site
													{
														OFFSET 0.000000 0.000000 0.050456
													}
												}
											}
											JOINT R_Wrist_Grapple
											{
												OFFSET -0.075001 -0.119021 0.003295
												CHANNELS 6 Xposition Yposition Zposition Zrotation Yrotation Xrotation
												End Site
												{
													OFFSET 0.000000 0.000000 0.050456
												}
											}
										}
									}
								}
							}
						}
					}
				}
			}
		}
	}
	JOINT Root_Grapple
	{
		OFFSET 0.000000 -0.000000 -1.000000
		CHANNELS 6 Xposition Yposition Zposition Zrotation Yrotation Xrotation
		End Site
		{
			OFFSET 0.000000 0.000000 0.050456
		}
	}
}
MOTION
Frames: 5
Frame Time: 0.033333
0.000000 0.000000 0.000000 -0.000000 -0.000000 -0.000000 0.000000 0.000000 -0.000000 -0.000000 0.000000 -0.000002 -0.000016 -0.018541 -0.025345 0.000000 0.000000 -0.000002 -0.000000 -0.000000 -0.000049 -6.922508 -1.664809 2.546626 0.099629 -0.000507 -0.096262 -125.627738 100.842784 -21.108519 0.440729 -0.000000 -0.000000 0.000023 -25.817092 0.000001 0.418593 -0.000000 -0.000000 13.624586 72.425004 3.532625 0.147135 -0.000000 -0.000000 2.942394 26.391125 0.690040 -0.099629 -0.000507 -0.096263 -23.686575 -78.486940 -50.736496 -0.440729 0.000000 -0.000000 0.000022 -26.373520 0.000001 -0.418593 0.000001 0.000000 9.945568 77.171015 2.317998 -0.147135 -0.000001 0.000000 1.961507 26.395775 0.460040 0.000000 -0.000032 0.010172 -99.673429 -84.761145 3.116944 0.150000 -0.000000 0.000000 -0.074695 -3.203501 0.544364 0.149789 0.000000 -0.000000 -0.080237 -0.692068 0.546053 0.178472 0.029517 0.004071 94.200282 8.876292 85.471635 0.184188 -0.013991 -0.037845 15.782535 66.797290 -100.220561 0.294246 0.000000 0.000000 0.000032 -34.127491 0.000001 0.154423 0.000000 0.000000 0.000001 0.000000 -5.034036 0.142091 0.000000 -0.000000 0.924356 -2.461938 -0.040854 0.095028 0.000000 -0.000000 25.707826 -1.260419 -84.480370 0.047568 0.000000 -0.000000 0.000026 -30.121448 -0.000001 0.008685 0.015288 0.035442 21.839028 -15.470814 -171.629567 0.048268 -0.000000 -0.000000 0.000010 -9.032315 0.000001 0.239309 0.000000 0.000000 -1.410671 -27.541423 5.824833 0.069269 0.000000 -0.000000 -3.438890 -84.166550 3.709211 0.031254 -0.000000 -0.000000 0.000026 -28.618397 -0.000000 0.178474 -0.029517 0.004071 90.307088 -1.673657 -91.495787 -0.184187 0.013991 0.037850 27.879203 69.078477 -81.747549 -0.294245 0.000001 -0.000000 -0.000149 -97.603390 -0.001014 -0.154426 -0.000003 0.000001 -0.000027 0.000002 40.812627 -0.142086 0.000003 -0.000001 10.391614 14.381636 1.980010 -0.095816 -0.001946 -0.031714 61.593621 2.599516 -94.360102 -0.045455 0.000000 -0.000000 -1.350107 -53.332832 0.678163 -0.095029 -0.000000 -0.000000 65.442515 -3.054359 -91.149195 -0.047568 -0.000000 -0.000001 5.845821 -58.468789 -1.203583 -0.008688 -0.015288 -0.035441 41.169256 -10.580055 144.483540 -0.048266 -0.000000 0.000002 7.535388 -18.995188 -1.262434 -0.000012 0.000002 -0.007289 124.046125 35.825199 49.110945 0.000000 -0.000000 -1.000000 -0.000000 -0.000000 -0.000000 
0.000000 0.000000 0.000000 -0.000000 -0.000000 -0.000000 0.000000 0.000000 -0.000000 -0.000000 0.000000 -0.000002 -0.000053 -0.016803 -0.025511 0.000000 0.000000 -0.000002 -0.000000 0.000000 -0.000049 -6.307706 -1.583219 2.784740 0.099629 -0.000507 -0.096262 -127.088456 100.803497 -22.138786 0.440729 -0.000000 -0.000000 0.000023 -25.888184 0.000002 0.418593 -0.000000 0.000000 13.506632 72.692727 3.512993 0.147135 -0.000000 -0.000000 2.942391 26.391122 0.690039 -0.099629 -0.000507 -0.096263 -22.835090 -78.781205 -52.141309 -0.440729 0.000000 -0.000000 0.000023 -26.373522 -0.000001 -0.418593 0.000001 0.000000 10.046354 77.253128 2.413382 -0.147135 -0.000001 -0.000000 1.961509 26.395771 0.460039 0.000000 -0.000032 0.010172 -98.540710 -84.521166 2.571290 0.150000 0.000000 -0.000000 -0.137927 -3.109804 0.656213 0.149789 -0.000000 -0.000000 -0.143877 -0.596627 0.653569 0.178472 0.029517 0.004071 94.175523 9.046527 85.423707 0.184188 -0.013991 -0.037845 16.640497 66.979458 -99.997268 0.294246 0.000000 0.000000 0.000032 -34.898261 0.000002 0.154423 -0.000000 0.000000 -0.000001 0.000001 -5.869215 0.142091 -0.000000 -0.000000 2.413290 -0.433479 -0.012626 0.095028 0.000000 -0.000000 25.707831 -1.260414 -84.480370 0.047568 0.000000 -0.000000 0.000026 -30.121445 -0.000000 0.008685 0.015288 0.035442 21.839036 -15.470814 -171.629567 0.048268 -0.000000 -0.000000 0.000010 -9.032315 -0.000001 0.239309 0.000000 -0.000000 -1.523389 -27.527431 5.840639 0.069269 0.000000 0.000000 -5.682247 -84.542149 6.338867 0.031254 0.000000 -0.000000 0.000026 -28.618397 -0.000000 0.178474 -0.029517 0.004071 90.265068 -1.592945 -91.463794 -0.184187 0.013991 0.037850 28.154028 69.686125 -80.506238 -0.294245 0.000001 0.000000 -0.000209 -96.703936 -0.001134 -0.154426 -0.000003 0.000001 -0.000023 -0.000002 40.812627 -0.142086 0.000003 -0.000001 10.830826 14.553115 2.052772 -0.095816 -0.001946 -0.031714 61.593615 2.599514 -94.360102 -0.045455 -0.000000 -0.000000 -1.350107 -53.332825 0.678161 -0.095029 -0.000000 0.000000 65.442515 -3.054360 -91.149195 -0.047568 0.000000 -0.000001 5.845819 -58.468783 -1.203583 -0.008688 -0.015288 -0.035441 41.169249 -10.580053 144.483540 -0.048266 -0.000000 0.000002 7.535387 -18.995190 -1.262429 -0.000012 0.000002 -0.007289 124.046125 35.825199 49.110945 0.000000 -0.000000 -1.000000 -0.000000 -0.000000 -0.000000 
0.000000 0.000000 0.000000 -0.000000 -0.000000 -0.000000 0.000000 0.000000 -0.000000 -0.000000 0.000000 -0.000002 -0.000090 -0.015065 -0.025677 0.000000 0.000000 -0.000002 0.000000 -0.000000 -0.000049 -5.692571 -1.504185 3.023719 0.099629 -0.000507 -0.096262 -130.228840 100.499240 -24.673717 0.440729 -0.000000 -0.000000 0.000023 -25.959271 0.000000 0.418593 0.000000 0.000000 13.386571 72.960436 3.491198 0.147135 0.000000 -0.000000 2.942396 26.391125 0.690041 -0.099629 -0.000507 -0.096263 -21.923302 -79.071201 -53.606214 -0.440729 0.000000 -0.000000 0.000022 -26.373519 -0.000002 -0.418593 0.000001 0.000000 10.148418 77.335213 2.510041 -0.147135 -0.000001 -0.000000 1.961507 26.395771 0.460039 -0.000000 -0.000032 0.010172 -97.478349 -84.280238 2.096142 0.150000 0.000000 -0.000000 -0.200969 -3.015984 0.767950 0.149789 -0.000000 -0.000000 -0.207337 -0.501065 0.760976 0.178472 0.029517 0.004071 94.150613 9.216739 85.375691 0.184188 -0.013991 -0.037845 17.506745 67.160301 -99.765274 0.294246 0.000000 0.000000 0.000034 -35.669031 -0.000000 0.154423 0.000000 -0.000000 -0.000000 0.000001 -6.704387 0.142091 -0.000000 -0.000000 3.026258 1.191218 0.066450 0.095028 -0.000000 0.000000 25.707833 -1.260414 -84.480370 0.047568 -0.000000 0.000000 0.000024 -30.121442 -0.000002 0.008685 0.015288 0.035442 21.839035 -15.470814 -171.629567 0.048268 0.000000 -0.000000 0.000007 -9.032315 -0.000001 0.239309 0.000000 -0.000000 -1.636088 -27.513399 5.856413 0.069269 0.000000 -0.000000 -8.279598 -84.906505 9.322387 0.031254 0.000000 -0.000000 0.000026 -28.618397 -0.000000 0.178474 -0.029517 0.004071 90.223117 -1.512216 -91.431849 -0.184187 0.013991 0.037850 28.475906 70.291505 -79.219724 -0.294245 0.000001 0.000000 -0.000254 -95.804475 -0.001293 -0.154426 -0.000003 0.000001 -0.000023 0.000000 40.812624 -0.142086 0.000003 -0.000001 10.604500 14.196321 1.941829 -0.095816 -0.001946 -0.031714 61.593615 2.599517 -94.360108 -0.045455 -0.000000 -0.000000 -1.350107 -53.332825 0.678163 -0.095029 -0.000000 0.000000 65.442515 -3.054359 -91.149195 -0.047568 0.000000 -0.000001 5.845819 -58.468783 -1.203584 -0.008688 -0.015288 -0.035441 41.169256 -10.580053 144.483540 -0.048266 0.000000 0.000002 7.535381 -18.995188 -1.262429 -0.000012 0.000002 -0.007289 124.046125 35.825203 49.110952 0.000000 -0.000000 -1.000000 -0.000000 -0.000000 -0.000000 
0.000000 0.000000 0.000000 -0.000000 -0.000000 -0.000000 0.000000 0.000000 -0.000000 -0.000000 0.000000 -0.000002 -0.000127 -0.013327 -0.025843 0.000000 0.000000 -0.000002 0.000000 0.000000 -0.000049 -5.077155 -1.427723 3.263515 0.099629 -0.000507 -0.096262 -133.530444 100.221777 -27.370103 0.440729 -0.000000 -0.000000 0.000024 -26.030361 0.000000 0.418593 -0.000000 -0.000000 13.264299 73.228125 3.467093 0.147135 -0.000000 -0.000000 2.942393 26.391122 0.690040 -0.099629 -0.000507 -0.096263 -20.947330 -79.356526 -55.135032 -0.440729 0.000000 -0.000000 0.000022 -26.373522 -0.000000 -0.418593 0.000001 -0.000000 10.251761 77.417250 2.607983 -0.147135 -0.000001 0.000000 1.961508 26.395771 0.460039 -0.000000 -0.000032 0.010172 -96.478109 -84.038518 1.683237 0.150000 0.000000 0.000000 -0.263824 -2.922039 0.879573 0.149789 -0.000000 0.000000 -0.270617 -0.405386 0.868278 0.178472 0.029517 0.004071 94.125546 9.386931 85.327573 0.184188 -0.013991 -0.037845 18.717922 67.169911 -99.710510 0.294246 -0.000000 0.000000 0.000033 -36.439800 -0.000004 0.154423 -0.000000 0.000000 -0.000001 -0.000002 -6.315613 0.142091 -0.000000 -0.000000 2.647294 1.675640 0.077207 0.095028 0.000000 0.000000 25.707835 -1.260410 -84.480376 0.047568 -0.000000 0.000000 0.000028 -30.121442 0.000001 0.008685 0.015288 0.035442 21.839035 -15.470814 -171.629581 0.048268 0.000000 -0.000000 0.000003 -9.032311 0.000002 0.239309 -0.000000 -0.000000 -1.748768 -27.499346 5.872151 0.069269 0.000000 -0.000000 -11.297717 -85.257024 12.726578 0.031254 0.000000 -0.000000 0.000026 -28.618399 -0.000000 0.178474 -0.029517 0.004071 90.181187 -1.431463 -91.399966 -0.184187 0.013991 0.037850 28.849012 70.894188 -77.883725 -0.294245 0.000001 0.000000 -0.000282 -94.905014 -0.001510 -0.154426 -0.000003 0.000001 -0.000022 -0.000003 41.261046 -0.142086 0.000003 -0.000001 10.379239 13.839106 1.832514 -0.095816 -0.001946 -0.031714 61.593621 2.599513 -94.360102 -0.045455 0.000000 -0.000000 -1.350107 -53.332829 0.678164 -0.095029 0.000000 0.000000 65.442522 -3.054363 -91.149189 -0.047568 -0.000000 -0.000001 5.845818 -58.468789 -1.203581 -0.008688 -0.015288 -0.035441 41.169249 -10.580057 144.483540 -0.048266 -0.000000 0.000002 7.535385 -18.995188 -1.262428 -0.000012 0.000002 -0.007289 124.046139 35.825203 49.110938 0.000000 -0.000000 -1.000000 -0.000000 -0.000000 -0.000000 
0.000000 0.000000 0.000000 -0.000000 -0.000000 -0.000000 0.000000 0.000000 -0.000000 -0.000000 0.000000 -0.000002 -0.003788 -0.010216 -0.042511 0.000000 0.000000 -0.000002 -0.000000 -0.000000 -0.000049 -5.231815 -1.815788 3.311384 0.099629 -0.000507 -0.096262 -129.896141 102.317347 -23.944184 0.440729 -0.000000 -0.000000 4.649660 -23.496920 -2.894382 0.418593 0.000000 0.000000 11.420419 74.111234 1.958530 0.147135 -0.000000 -0.000000 2.942394 26.391122 0.690038 -0.099629 -0.000507 -0.096263 -16.180464 -75.693133 -60.498715 -0.440729 0.000000 -0.000000 3.332078 -26.677104 0.202353 -0.418593 0.000001 0.000000 7.072603 77.971404 -0.161889 -0.147135 -0.000001 -0.000000 1.961510 26.395773 0.460040 -0.000000 -0.000032 0.010172 -102.277240 -84.258634 7.375926 0.150000 -0.000000 0.000000 -0.472011 -3.541224 0.952199 0.149789 -0.000000 0.000000 -0.503906 0.676929 0.152143 0.178472 0.029517 0.004071 93.676208 8.701527 85.269038 0.184188 -0.013991 -0.037845 15.535264 64.324433 -104.396388 0.294246 0.000000 0.000000 -2.765135 -34.138566 -0.678356 0.154423 -0.000000 0.000000 0.000001 -0.000002 -7.254658 0.142091 -0.000000 -0.000000 2.057531 1.658051 0.068732 0.095028 0.000000 0.000000 27.017266 -1.608551 -84.520552 0.047568 0.000000 -0.000000 0.063663 -31.216481 0.110272 0.008685 0.015288 0.035442 22.276327 -15.871314 -171.825116 0.048268 0.000000 -0.000000 -0.317115 -9.435546 -0.082754 0.239309 0.000000 -0.000000 -2.646905 -27.961918 6.045248 0.069269 0.000000 0.000000 -19.923161 -83.286316 21.068209 0.031254 0.000000 0.000000 0.000026 -28.618394 -0.000001 0.178474 -0.029517 0.004071 91.745806 -0.494292 -90.428078 -0.184187 0.013991 0.037850 30.534562 69.721007 -74.646652 -0.294245 0.000001 -0.000000 -0.000332 -94.017752 -0.001860 -0.154426 -0.000003 0.000001 -0.000158 0.000277 42.784325 -0.142086 0.000003 -0.000001 9.375508 12.821998 1.613843 -0.095816 -0.001946 -0.031714 61.593621 2.599511 -94.360102 -0.045455 0.000000 -0.000000 -1.350108 -53.332825 0.678163 -0.095029 0.000000 0.000000 65.442515 -3.054358 -91.149195 -0.047568 -0.000000 -0.000001 5.845821 -58.468789 -1.203581 -0.008688 -0.015288 -0.035441 41.169249 -10.580053 144.483540 -0.048266 0.000000 0.000002 7.535381 -18.995190 -1.262432 -0.000012 0.000002 -0.007289 124.046125 35.825199 49.110938 0.000000 -0.000000 -1.000000 -0.000000 -0.000000 -0.000000 
